<mxfile host="Electron" agent="Mozilla/5.0 (Windows NT 10.0; Win64; x64) AppleWebKit/537.36 (KHTML, like Gecko) draw.io/28.1.2 Chrome/138.0.7204.243 Electron/37.4.0 Safari/537.36" version="28.1.2">
  <diagram name="Trang-1" id="yyXsPRLaYPaVGF7CnpPT">
    <mxGraphModel dx="692" dy="501" grid="1" gridSize="10" guides="1" tooltips="1" connect="1" arrows="1" fold="1" page="1" pageScale="1" pageWidth="827" pageHeight="1169" math="0" shadow="0">
      <root>
        <mxCell id="0" />
        <mxCell id="1" parent="0" />
        <mxCell id="Eh6ZHCR8NkGB6q61IKbv-2" value="Bắt đầu&amp;nbsp;" style="ellipse;whiteSpace=wrap;html=1;fillColor=#60a917;strokeColor=#2D7600;fontColor=#ffffff;" parent="1" vertex="1">
          <mxGeometry x="140" y="40" width="120" height="80" as="geometry" />
        </mxCell>
        <mxCell id="Eh6ZHCR8NkGB6q61IKbv-4" value="Nhập thông tin sv" style="shape=parallelogram;perimeter=parallelogramPerimeter;whiteSpace=wrap;html=1;fixedSize=1;fillColor=#a20025;strokeColor=#6F0000;fontColor=#ffffff;" parent="1" vertex="1">
          <mxGeometry x="130" y="180" width="140" height="70" as="geometry" />
        </mxCell>
        <mxCell id="Eh6ZHCR8NkGB6q61IKbv-5" value="Nhập điểm môn&lt;div&gt;học&lt;/div&gt;" style="shape=parallelogram;perimeter=parallelogramPerimeter;whiteSpace=wrap;html=1;fixedSize=1;fillColor=#d80073;strokeColor=#A50040;fontColor=#ffffff;" parent="1" vertex="1">
          <mxGeometry x="132.5" y="310" width="135" height="70" as="geometry" />
        </mxCell>
        <mxCell id="Eh6ZHCR8NkGB6q61IKbv-7" value="Điểm có hợp&lt;div&gt;lệ ?&lt;/div&gt;" style="rhombus;whiteSpace=wrap;html=1;fillColor=#f5f5f5;fontColor=#333333;strokeColor=#666666;" parent="1" vertex="1">
          <mxGeometry x="370" y="460" width="120" height="95" as="geometry" />
        </mxCell>
        <mxCell id="Eh6ZHCR8NkGB6q61IKbv-8" value="" style="endArrow=classic;html=1;rounded=0;" parent="1" edge="1">
          <mxGeometry width="50" height="50" relative="1" as="geometry">
            <mxPoint x="200" y="120" as="sourcePoint" />
            <mxPoint x="200" y="180" as="targetPoint" />
            <Array as="points">
              <mxPoint x="200" y="150" />
            </Array>
          </mxGeometry>
        </mxCell>
        <mxCell id="Hc21k_h5qNArCi-fCjcL-1" value="" style="endArrow=classic;html=1;rounded=0;" parent="1" target="Eh6ZHCR8NkGB6q61IKbv-5" edge="1">
          <mxGeometry width="50" height="50" relative="1" as="geometry">
            <mxPoint x="200" y="260" as="sourcePoint" />
            <mxPoint x="225" y="260" as="targetPoint" />
            <Array as="points">
              <mxPoint x="200" y="250" />
              <mxPoint x="200" y="260" />
            </Array>
          </mxGeometry>
        </mxCell>
        <mxCell id="Hc21k_h5qNArCi-fCjcL-2" value="" style="endArrow=classic;html=1;rounded=0;exitX=1;exitY=0.5;exitDx=0;exitDy=0;entryX=0;entryY=0.5;entryDx=0;entryDy=0;entryPerimeter=0;" parent="1" source="Eh6ZHCR8NkGB6q61IKbv-5" edge="1">
          <mxGeometry width="50" height="50" relative="1" as="geometry">
            <mxPoint x="390" y="380" as="sourcePoint" />
            <mxPoint x="360" y="345" as="targetPoint" />
            <Array as="points" />
          </mxGeometry>
        </mxCell>
        <mxCell id="Hc21k_h5qNArCi-fCjcL-3" value="" style="edgeStyle=none;orthogonalLoop=1;jettySize=auto;html=1;rounded=0;entryX=0.5;entryY=0;entryDx=0;entryDy=0;" parent="1" target="Eh6ZHCR8NkGB6q61IKbv-7" edge="1">
          <mxGeometry width="100" relative="1" as="geometry">
            <mxPoint x="430" y="385" as="sourcePoint" />
            <mxPoint x="420" y="460" as="targetPoint" />
            <Array as="points" />
          </mxGeometry>
        </mxCell>
        <mxCell id="Hc21k_h5qNArCi-fCjcL-7" value="Có" style="text;html=1;align=center;verticalAlign=middle;resizable=0;points=[];autosize=1;strokeColor=none;fillColor=none;" parent="1" vertex="1">
          <mxGeometry x="330" y="550" width="40" height="30" as="geometry" />
        </mxCell>
        <mxCell id="Hc21k_h5qNArCi-fCjcL-10" value="Không" style="text;html=1;align=center;verticalAlign=middle;resizable=0;points=[];autosize=1;strokeColor=none;fillColor=none;" parent="1" vertex="1">
          <mxGeometry x="500" y="550" width="60" height="30" as="geometry" />
        </mxCell>
        <mxCell id="Hc21k_h5qNArCi-fCjcL-11" value="" style="endArrow=classic;html=1;rounded=0;exitX=1;exitY=1;exitDx=0;exitDy=0;entryX=0.392;entryY=0.039;entryDx=0;entryDy=0;entryPerimeter=0;" parent="1" source="Eh6ZHCR8NkGB6q61IKbv-7" target="Hc21k_h5qNArCi-fCjcL-15" edge="1">
          <mxGeometry width="50" height="50" relative="1" as="geometry">
            <mxPoint x="540" y="600" as="sourcePoint" />
            <mxPoint x="510" y="590" as="targetPoint" />
          </mxGeometry>
        </mxCell>
        <mxCell id="Hc21k_h5qNArCi-fCjcL-12" value="" style="endArrow=classic;html=1;rounded=0;exitX=0;exitY=1;exitDx=0;exitDy=0;" parent="1" source="Eh6ZHCR8NkGB6q61IKbv-7" edge="1">
          <mxGeometry width="50" height="50" relative="1" as="geometry">
            <mxPoint x="540" y="600" as="sourcePoint" />
            <mxPoint x="360" y="590" as="targetPoint" />
          </mxGeometry>
        </mxCell>
        <mxCell id="Hc21k_h5qNArCi-fCjcL-14" value="Tính điểm trung bình" style="rounded=0;whiteSpace=wrap;html=1;fillColor=#fa6800;strokeColor=#C73500;fontColor=#000000;" parent="1" vertex="1">
          <mxGeometry x="294" y="590" width="136" height="70" as="geometry" />
        </mxCell>
        <mxCell id="Hc21k_h5qNArCi-fCjcL-15" value="Thông báo lỗi nhập" style="rounded=0;whiteSpace=wrap;html=1;fillColor=#647687;strokeColor=#314354;fontColor=#ffffff;" parent="1" vertex="1">
          <mxGeometry x="480" y="590" width="120" height="70" as="geometry" />
        </mxCell>
        <mxCell id="Hc21k_h5qNArCi-fCjcL-18" value="" style="endArrow=classic;html=1;rounded=0;exitX=0.5;exitY=1;exitDx=0;exitDy=0;" parent="1" source="Hc21k_h5qNArCi-fCjcL-14" edge="1">
          <mxGeometry width="50" height="50" relative="1" as="geometry">
            <mxPoint x="550" y="630" as="sourcePoint" />
            <mxPoint x="362" y="720" as="targetPoint" />
          </mxGeometry>
        </mxCell>
        <mxCell id="Hc21k_h5qNArCi-fCjcL-19" value="Lưu kết quả vào&lt;div&gt;hệ thống&lt;/div&gt;" style="shape=parallelogram;perimeter=parallelogramPerimeter;whiteSpace=wrap;html=1;fixedSize=1;fillColor=#6d8764;strokeColor=#3A5431;fontColor=#ffffff;" parent="1" vertex="1">
          <mxGeometry x="288" y="720" width="148" height="70" as="geometry" />
        </mxCell>
        <mxCell id="Hc21k_h5qNArCi-fCjcL-22" value="" style="edgeStyle=orthogonalEdgeStyle;rounded=0;orthogonalLoop=1;jettySize=auto;html=1;exitX=0.5;exitY=1;exitDx=0;exitDy=0;" parent="1" source="Hc21k_h5qNArCi-fCjcL-21" target="Eh6ZHCR8NkGB6q61IKbv-7" edge="1">
          <mxGeometry relative="1" as="geometry" />
        </mxCell>
        <mxCell id="Hc21k_h5qNArCi-fCjcL-21" value="Kiểm tra điểm hợp lệ" style="rounded=0;whiteSpace=wrap;html=1;fillColor=#0050ef;strokeColor=#001DBC;fontColor=#ffffff;" parent="1" vertex="1">
          <mxGeometry x="360" y="305" width="140" height="80" as="geometry" />
        </mxCell>
        <mxCell id="Hc21k_h5qNArCi-fCjcL-23" value="" style="endArrow=classic;html=1;rounded=0;exitX=0.5;exitY=1;exitDx=0;exitDy=0;" parent="1" source="Hc21k_h5qNArCi-fCjcL-15" edge="1">
          <mxGeometry width="50" height="50" relative="1" as="geometry">
            <mxPoint x="550" y="760" as="sourcePoint" />
            <mxPoint x="540" y="720" as="targetPoint" />
          </mxGeometry>
        </mxCell>
        <mxCell id="Hc21k_h5qNArCi-fCjcL-24" value="Kết thúc" style="ellipse;whiteSpace=wrap;html=1;fillColor=#e3c800;strokeColor=#B09500;fontColor=#000000;" parent="1" vertex="1">
          <mxGeometry x="480" y="720" width="120" height="80" as="geometry" />
        </mxCell>
        <mxCell id="Hc21k_h5qNArCi-fCjcL-25" value="" style="endArrow=classic;html=1;rounded=0;exitX=0.5;exitY=1;exitDx=0;exitDy=0;" parent="1" source="Hc21k_h5qNArCi-fCjcL-19" edge="1">
          <mxGeometry width="50" height="50" relative="1" as="geometry">
            <mxPoint x="560" y="720" as="sourcePoint" />
            <mxPoint x="362" y="860" as="targetPoint" />
          </mxGeometry>
        </mxCell>
        <mxCell id="Hc21k_h5qNArCi-fCjcL-26" value="Hiển thị kết quả" style="shape=parallelogram;perimeter=parallelogramPerimeter;whiteSpace=wrap;html=1;fixedSize=1;fillColor=#76608a;strokeColor=#432D57;fontColor=#ffffff;" parent="1" vertex="1">
          <mxGeometry x="298" y="860" width="138" height="70" as="geometry" />
        </mxCell>
        <mxCell id="Hc21k_h5qNArCi-fCjcL-27" value="" style="endArrow=classic;html=1;rounded=0;exitX=0.442;exitY=0.982;exitDx=0;exitDy=0;exitPerimeter=0;" parent="1" source="Hc21k_h5qNArCi-fCjcL-26" edge="1">
          <mxGeometry width="50" height="50" relative="1" as="geometry">
            <mxPoint x="560" y="1020" as="sourcePoint" />
            <mxPoint x="360" y="1000" as="targetPoint" />
          </mxGeometry>
        </mxCell>
        <mxCell id="Hc21k_h5qNArCi-fCjcL-28" value="Kết thúc" style="ellipse;whiteSpace=wrap;html=1;" parent="1" vertex="1">
          <mxGeometry x="302" y="1000" width="120" height="80" as="geometry" />
        </mxCell>
      </root>
    </mxGraphModel>
  </diagram>
</mxfile>
